<mxfile host="app.diagrams.net">
  <diagram name="AI Quote App" id="1">
    <mxGraphModel dx="1422" dy="794" grid="1" gridSize="10" guides="1" tooltips="1"
     connect="1" arrows="1" fold="1" page="1" pageScale="1" pageWidth="827"
     pageHeight="1169" math="0" shadow="0">
      <root>
        <mxCell id="0" />
        <mxCell id="1" parent="0" />

        <!-- User -->
        <mxCell id="2" value="User (Browser)" style="ellipse;whiteSpace=wrap;html=1;" vertex="1" parent="1">
          <mxGeometry x="40" y="80" width="100" height="60" as="geometry" />
        </mxCell>

        <!-- Frontend -->
        <mxCell id="3" value="React Frontend" style="rounded=1;whiteSpace=wrap;html=1;" vertex="1" parent="1">
          <mxGeometry x="200" y="80" width="160" height="60" as="geometry" />
        </mxCell>

        <!-- API -->
        <mxCell id="4" value=".NET Core API" style="rounded=1;whiteSpace=wrap;html=1;fillColor=#dae8fc;" vertex="1" parent="1">
          <mxGeometry x="400" y="80" width="160" height="60" as="geometry" />
        </mxCell>

        <!-- AI/ML -->
        <mxCell id="5" value="Azure AI/ML Services" style="rounded=1;whiteSpace=wrap;html=1;fillColor=#e1d5e7;" vertex="1" parent="1">
          <mxGeometry x="600" y="40" width="180" height="60" as="geometry" />
        </mxCell>

        <!-- Web Crawler -->
        <mxCell id="6" value="Web Crawler" style="rounded=1;whiteSpace=wrap;html=1;fillColor=#f8cecc;" vertex="1" parent="1">
          <mxGeometry x="600" y="120" width="180" height="60" as="geometry" />
        </mxCell>

        <!-- Database -->
        <mxCell id="7" value="SQL Server / MongoDB" style="shape=cylinder;whiteSpace=wrap;html=1;fillColor=#d5e8d4;" vertex="1" parent="1">
          <mxGeometry x="400" y="200" width="180" height="80" as="geometry" />
        </mxCell>

        <!-- Azure Services -->
        <mxCell id="8" value="Azure App Services / DevOps / App Insights" style="rounded=1;whiteSpace=wrap;html=1;fillColor=#fff2cc;" vertex="1" parent="1">
          <mxGeometry x="200" y="300" width="380" height="60" as="geometry" />
        </mxCell>

        <!-- Edges -->
        <mxCell id="9" style="endArrow=block;" edge="1" parent="1" source="2" target="3" />
        <mxCell id="10" style="endArrow=block;" edge="1" parent="1" source="3" target="4" />
        <mxCell id="11" style="endArrow=block;" edge="1" parent="1" source="4" target="5" />
        <mxCell id="12" style="endArrow=block;" edge="1" parent="1" source="4" target="6" />
        <mxCell id="13" style="endArrow=block;" edge="1" parent="1" source="4" target="7" />
        <mxCell id="14" style="endArrow=block;" edge="1" parent="1" source="7" target="5" />
        <mxCell id="15" style="endArrow=block;" edge="1" parent="1" source="4" target="8" />
      </root>
    </mxGraphModel>
  </diagram>
</mxfile>
